<svg xmlns="http://www.w3.org/2000/svg" viewBox="0 0 376 56" width="376" height="56" role="img" aria-label="Ship: Vercel, Railway, GitHub, pytest, Zod, PWA">
  <style>.bg{fill:#171513;stroke:#2A2520;stroke-width:1}.ic{fill:#F5F5F5}</style>
  <g transform="translate(0,0)">
    <rect class="bg" width="56" height="56" rx="12"/>
    <g transform="translate(12,12) scale(1.333)" class="ic">
      <path d="m12 1.608 12 20.784H0Z"/>
    </g>
  </g>
  <g transform="translate(64,0)">
    <rect class="bg" width="56" height="56" rx="12"/>
    <g transform="translate(12,12) scale(1.333)" class="ic">
      <path d="M.113 10.27A13.026 13.026 0 000 11.48h18.23c-.064-.125-.15-.237-.235-.347-3.117-4.027-4.793-3.677-7.19-3.78-.8-.034-1.34-.048-4.524-.048-1.704 0-3.555.005-5.358.01-.234.63-.459 1.24-.567 1.737h9.342v1.216H.113v.002zm18.26 2.426H.009c.02.326.05.645.094.961h16.955c.754 0 1.179-.429 1.315-.96zm-17.318 4.28s2.81 6.902 10.93 7.024c4.855 0 9.027-2.883 10.92-7.024H1.056zM11.988 0C7.5 0 3.593 2.466 1.531 6.108l4.75-.005v-.002c3.71 0 3.849.016 4.573.047l.448.016c1.563.052 3.485.22 4.996 1.364.82.621 2.007 1.99 2.712 2.965.654.902.842 1.94.396 2.934-.408.914-1.289 1.458-2.353 1.458H.391s.099.42.249.886h22.748A12.026 12.026 0 0024 12.005C24 5.377 18.621 0 11.988 0z"/>
    </g>
  </g>
  <g transform="translate(128,0)">
    <rect class="bg" width="56" height="56" rx="12"/>
    <g transform="translate(12,12) scale(1.333)" class="ic">
      <path d="M12 .297c-6.63 0-12 5.373-12 12 0 5.303 3.438 9.8 8.205 11.385.6.113.82-.258.82-.577 0-.285-.01-1.04-.015-2.04-3.338.724-4.042-1.61-4.042-1.61C4.422 18.07 3.633 17.7 3.633 17.7c-1.087-.744.084-.729.084-.729 1.205.084 1.838 1.236 1.838 1.236 1.07 1.835 2.809 1.305 3.495.998.108-.776.417-1.305.76-1.605-2.665-.3-5.466-1.332-5.466-5.93 0-1.31.465-2.38 1.235-3.22-.135-.303-.54-1.523.105-3.176 0 0 1.005-.322 3.3 1.23.96-.267 1.98-.399 3-.405 1.02.006 2.04.138 3 .405 2.28-1.552 3.285-1.23 3.285-1.23.645 1.653.24 2.873.12 3.176.765.84 1.23 1.91 1.23 3.22 0 4.61-2.805 5.625-5.475 5.92.42.36.81 1.096.81 2.22 0 1.606-.015 2.896-.015 3.286 0 .315.21.69.825.57C20.565 22.092 24 17.592 24 12.297c0-6.627-5.373-12-12-12"/>
    </g>
  </g>
  <g transform="translate(192,0)">
    <rect class="bg" width="56" height="56" rx="12"/>
    <g transform="translate(12,12) scale(1.333)" class="ic">
      <path d="M2.6152 0v.8867h3.8399V0zm5.0215 0v.8867h3.8418V0zm4.957 0v.8867h3.8418V0zm4.9356 0v.8867h3.8418V0zM2.4473 1.8945a.935.935 0 0 0-.9356.9356c0 .517.4185.9375.9356.9375h19.1054c.5171 0 .9356-.4204.9356-.9375a.935.935 0 0 0-.9356-.9356zm.168 2.8477V24H6.455V4.7422zm5.0214 0V20.543h3.8418V4.7422zm4.957 0V15.291h3.8497V4.7422zm4.9356 0v6.4941h3.8418V4.7422z"/>
    </g>
  </g>
  <g transform="translate(256,0)">
    <rect class="bg" width="56" height="56" rx="12"/>
    <g transform="translate(12,12) scale(1.333)" class="ic">
      <path d="M2.584 3.582a2.247 2.247 0 0 1 2.112-1.479h14.617c.948 0 1.794.595 2.115 1.487l2.44 6.777a2.248 2.248 0 0 1-.624 2.443l-9.61 8.52a2.247 2.247 0 0 1-2.963.018L.776 12.773a2.248 2.248 0 0 1-.64-2.467Zm12.038 4.887-9.11 5.537 5.74 5.007c.456.399 1.139.396 1.593-.006l5.643-5.001H14.4l6.239-3.957c.488-.328.69-.947.491-1.5l-1.24-3.446a1.535 1.535 0 0 0-1.456-1.015H5.545a1.535 1.535 0 0 0-1.431 1.01l-1.228 3.37z"/>
    </g>
  </g>
  <g transform="translate(320,0)">
    <rect class="bg" width="56" height="56" rx="12"/>
    <g transform="translate(12,12) scale(1.333)" class="ic">
      <path d="M20.5967 7.482L24 16.518h-2.5098l-.5816-1.6184h-3.2452l.6933-1.7532h2.0019l-.95-2.6597 1.1881-3.0047zm-8.111 0l1.7722 5.8393L16.75 7.482h2.4154l-3.6433 9.036h-2.3833l-1.6395-5.2366-1.7196 5.2366h-2.377l-1.233-2.1161 1.2144-3.7415 1.342 2.6609 1.9029-5.8393h1.8566zm-8.7453 0c1.0635 0 1.8713.3055 2.4234.9166a2.647 2.647 0 01.2806.3684l-1.0753 3.3128-.3847 1.1854c-.352.1006-.7533.1509-1.204.1509H2.2928v3.102H0V7.482zm-.5816 1.7532h-.866v2.4276h.8597c.5577 0 .9406-.1194 1.1485-.3582.1896-.215.2845-.5058.2845-.8724 0-.364-.1079-.6544-.3235-.8714-.2157-.217-.5834-.3256-1.1032-.3256z"/>
    </g>
  </g>
</svg>
