<svg xmlns="http://www.w3.org/2000/svg" viewBox="0 0 312 56" width="312" height="56" role="img" aria-label="Integration tech: Supabase, PostgreSQL, Claude, OpenAI, Razorpay">
  <style>.bg{fill:#171513;stroke:#2A2520;stroke-width:1}.ic{fill:#F5F5F5}</style>
  <g transform="translate(0,0)">
    <rect class="bg" width="56" height="56" rx="12"/>
    <g transform="translate(12,12) scale(1.333)" class="ic">
      <path d="M11.9 1.036c-.015-.986-1.26-1.41-1.874-.637L.764 12.05C-.33 13.427.65 15.455 2.409 15.455h9.579l.113 7.51c.014.985 1.259 1.408 1.873.636l9.262-11.653c1.093-1.375.113-3.403-1.645-3.403h-9.642z"/>
    </g>
  </g>
  <g transform="translate(64,0)">
    <rect class="bg" width="56" height="56" rx="12"/>
    <g transform="translate(12,12) scale(1.333)" class="ic">
      <path d="M23.5594 14.7228a.5269.5269 0 0 0-.0563-.1191c-.139-.2632-.4768-.3418-1.0074-.2321-1.6533.3411-2.2935.1312-2.5256-.0191 1.342-2.0482 2.445-4.522 3.0411-6.8297.2714-1.0507.7982-3.5237.1222-4.7316a1.5641 1.5641 0 0 0-.1509-.235C21.6931.9086 19.8007.0248 17.5099.0005c-1.4947-.0158-2.7705.3461-3.1161.4794a9.449 9.449 0 0 0-.5159-.0816 8.044 8.044 0 0 0-1.3114-.1278c-1.1822-.0184-2.2038.2642-3.0498.8406-.8573-.3211-4.7888-1.645-7.2219.0788C.9359 2.1526.3086 3.8733.4302 6.3043c.0409.818.5069 3.334 1.2423 5.7436.4598 1.5065.9387 2.7019 1.4334 3.582.553.9942 1.1259 1.5933 1.7143 1.7895.4474.1491 1.1327.1441 1.8581-.7279.8012-.9635 1.5903-1.8258 1.9446-2.2069.4351.2355.9064.3625 1.39.3772a.0569.0569 0 0 0 .0004.0041 11.0312 11.0312 0 0 0-.2472.3054c-.3389.4302-.4094.5197-1.5002.7443-.3102.064-1.1344.2339-1.1464.8115-.0025.1224.0329.2309.0919.3268.2269.4231.9216.6097 1.015.6331 1.3345.3335 2.5044.092 3.3714-.6787-.017 2.231.0775 4.4174.3454 5.0874.2212.5529.7618 1.9045 2.4692 1.9043.2505 0 .5263-.0291.8296-.0941 1.7819-.3821 2.5557-1.1696 2.855-2.9059.1503-.8707.4016-2.8753.5388-4.1012.0169-.0703.0357-.1207.057-.1362.0007-.0005.0697-.0471.4272.0307a.3673.3673 0 0 0 .0443.0068l.2539.0223.0149.001c.8468.0384 1.9114-.1426 2.5312-.4308.6438-.2988 1.8057-1.0323 1.5951-1.6698zM2.371 11.8765c-.7435-2.4358-1.1779-4.8851-1.2123-5.5719-.1086-2.1714.4171-3.6829 1.5623-4.4927 1.8367-1.2986 4.8398-.5408 6.108-.13-.0032.0032-.0066.0061-.0098.0094-2.0238 2.044-1.9758 5.536-1.9708 5.7495-.0002.0823.0066.1989.0162.3593.0348.5873.0996 1.6804-.0735 2.9184-.1609 1.1504.1937 2.2764.9728 3.0892.0806.0841.1648.1631.2518.2374-.3468.3714-1.1004 1.1926-1.9025 2.1576-.5677.6825-.9597.5517-1.0886.5087-.3919-.1307-.813-.5871-1.2381-1.3223-.4796-.839-.9635-2.0317-1.4155-3.5126zm6.0072 5.0871c-.1711-.0428-.3271-.1132-.4322-.1772.0889-.0394.2374-.0902.4833-.1409 1.2833-.2641 1.4815-.4506 1.9143-1.0002.0992-.126.2116-.2687.3673-.4426a.3549.3549 0 0 0 .0737-.1298c.1708-.1513.2724-.1099.4369-.0417.156.0646.3078.26.3695.4752.0291.1016.0619.2945-.0452.4444-.9043 1.2658-2.2216 1.2494-3.1676 1.0128zm2.094-3.988-.0525.141c-.133.3566-.2567.6881-.3334 1.003-.6674-.0021-1.3168-.2872-1.8105-.8024-.6279-.6551-.9131-1.5664-.7825-2.5004.1828-1.3079.1153-2.4468.079-3.0586-.005-.0857-.0095-.1607-.0122-.2199.2957-.2621 1.6659-.9962 2.6429-.7724.4459.1022.7176.4057.8305.928.5846 2.7038.0774 3.8307-.3302 4.7363-.084.1866-.1633.3629-.2311.5454zm7.3637 4.5725c-.0169.1768-.0358.376-.0618.5959l-.146.4383a.3547.3547 0 0 0-.0182.1077c-.0059.4747-.054.6489-.115.8693-.0634.2292-.1353.4891-.1794 1.0575-.11 1.4143-.8782 2.2267-2.4172 2.5565-1.5155.3251-1.7843-.4968-2.0212-1.2217a6.5824 6.5824 0 0 0-.0769-.2266c-.2154-.5858-.1911-1.4119-.1574-2.5551.0165-.5612-.0249-1.9013-.3302-2.6462.0044-.2932.0106-.5909.019-.8918a.3529.3529 0 0 0-.0153-.1126 1.4927 1.4927 0 0 0-.0439-.208c-.1226-.4283-.4213-.7866-.7797-.9351-.1424-.059-.4038-.1672-.7178-.0869.067-.276.1831-.5875.309-.9249l.0529-.142c.0595-.16.134-.3257.213-.5012.4265-.9476 1.0106-2.2453.3766-5.1772-.2374-1.0981-1.0304-1.6343-2.2324-1.5098-.7207.0746-1.3799.3654-1.7088.5321a5.6716 5.6716 0 0 0-.1958.1041c.0918-1.1064.4386-3.1741 1.7357-4.4823a4.0306 4.0306 0 0 1 .3033-.276.3532.3532 0 0 0 .1447-.0644c.7524-.5706 1.6945-.8506 2.802-.8325.4091.0067.8017.0339 1.1742.081 1.939.3544 3.2439 1.4468 4.0359 2.3827.8143.9623 1.2552 1.9315 1.4312 2.4543-1.3232-.1346-2.2234.1268-2.6797.779-.9926 1.4189.543 4.1729 1.2811 5.4964.1353.2426.2522.4522.2889.5413.2403.5825.5515.9713.7787 1.2552.0696.087.1372.1714.1885.245-.4008.1155-1.1208.3825-1.0552 1.717-.0123.1563-.0423.4469-.0834.8148-.0461.2077-.0702.4603-.0994.7662zm.8905-1.6211c-.0405-.8316.2691-.9185.5967-1.0105a2.8566 2.8566 0 0 0 .135-.0406 1.202 1.202 0 0 0 .1342.103c.5703.3765 1.5823.4213 3.0068.1344-.2016.1769-.5189.3994-.9533.6011-.4098.1903-1.0957.333-1.7473.3636-.7197.0336-1.0859-.0807-1.1721-.151zm.5695-9.2712c-.0059.3508-.0542.6692-.1054 1.0017-.055.3576-.112.7274-.1264 1.1762-.0142.4368.0404.8909.0932 1.3301.1066.887.216 1.8003-.2075 2.7014a3.5272 3.5272 0 0 1-.1876-.3856c-.0527-.1276-.1669-.3326-.3251-.6162-.6156-1.1041-2.0574-3.6896-1.3193-4.7446.3795-.5427 1.3408-.5661 2.1781-.463zm.2284 7.0137a12.3762 12.3762 0 0 0-.0853-.1074l-.0355-.0444c.7262-1.1995.5842-2.3862.4578-3.4385-.0519-.4318-.1009-.8396-.0885-1.2226.0129-.4061.0666-.7543.1185-1.0911.0639-.415.1288-.8443.1109-1.3505.0134-.0531.0188-.1158.0118-.1902-.0457-.4855-.5999-1.938-1.7294-3.253-.6076-.7073-1.4896-1.4972-2.6889-2.0395.5251-.1066 1.2328-.2035 2.0244-.1859 2.0515.0456 3.6746.8135 4.8242 2.2824a.908.908 0 0 1 .0667.1002c.7231 1.3556-.2762 6.2751-2.9867 10.5405zm-8.8166-6.1162c-.025.1794-.3089.4225-.6211.4225a.5821.5821 0 0 1-.0809-.0056c-.1873-.026-.3765-.144-.5059-.3156-.0458-.0605-.1203-.178-.1055-.2844.0055-.0401.0261-.0985.0925-.1488.1182-.0894.3518-.1226.6096-.0867.3163.0441.6426.1938.6113.4186zm7.9305-.4114c.0111.0792-.049.201-.1531.3102-.0683.0717-.212.1961-.4079.2232a.5456.5456 0 0 1-.075.0052c-.2935 0-.5414-.2344-.5607-.3717-.024-.1765.2641-.3106.5611-.352.297-.0414.6111.0088.6356.1851z"/>
    </g>
  </g>
  <g transform="translate(128,0)">
    <rect class="bg" width="56" height="56" rx="12"/>
    <g transform="translate(12,12) scale(1.333)" class="ic">
      <path d="m4.714 15.956l4.718-2.648l.079-.23l-.08-.128h-.23l-.79-.048l-2.695-.073l-2.337-.097l-2.265-.122l-.57-.121l-.535-.704l.055-.353l.48-.321l.685.06l1.518.104l2.277.157l1.651.098l2.447.255h.389l.054-.158l-.133-.097l-.103-.098l-2.356-1.596l-2.55-1.688l-1.336-.972l-.722-.491L2 6.223l-.158-1.008l.656-.722l.88.06l.224.061l.893.686l1.906 1.476l2.49 1.833l.364.304l.146-.104l.018-.072l-.164-.274l-1.354-2.446l-1.445-2.49l-.644-1.032l-.17-.619a3 3 0 0 1-.103-.729L6.287.133L6.7 0l.995.134l.42.364l.619 1.415L9.735 4.14l1.555 3.03l.455.898l.243.832l.09.255h.159V9.01l.127-1.706l.237-2.095l.23-2.695l.08-.76l.376-.91l.747-.492l.583.28l.48.685l-.067.444l-.286 1.851l-.558 2.903l-.365 1.942h.213l.243-.242l.983-1.306l1.652-2.064l.728-.82l.85-.904l.547-.431h1.032l.759 1.129l-.34 1.166l-1.063 1.347l-.88 1.142l-1.263 1.7l-.79 1.36l.074.11l.188-.02l2.853-.606l1.542-.28l1.84-.315l.832.388l.09.395l-.327.807l-1.967.486l-2.307.462l-3.436.813l-.043.03l.049.061l1.548.146l.662.036h1.62l3.018.225l.79.522l.473.638l-.08.485l-1.213.62l-1.64-.389l-3.825-.91l-1.31-.329h-.183v.11l1.093 1.068l2.003 1.81l2.508 2.33l.127.578l-.321.455l-.34-.049l-2.204-1.657l-.85-.747l-1.925-1.62h-.127v.17l.443.649l2.343 3.521l.122 1.08l-.17.353l-.607.213l-.668-.122l-1.372-1.924l-1.415-2.168l-1.141-1.943l-.14.08l-.674 7.254l-.316.37l-.728.28l-.607-.461l-.322-.747l.322-1.476l.388-1.924l.316-1.53l.285-1.9l.17-.632l-.012-.042l-.14.018l-1.432 1.967l-2.18 2.945l-1.724 1.845l-.413.164l-.716-.37l.066-.662l.401-.589l2.386-3.036l1.439-1.882l.929-1.086l-.006-.158h-.055L4.138 18.56l-1.13.146l-.485-.456l.06-.746l.231-.243l1.907-1.312Z"/>
    </g>
  </g>
  <g transform="translate(192,0)">
    <rect class="bg" width="56" height="56" rx="12"/>
    <g transform="translate(12,12) scale(1.333)" class="ic">
      <path d="M22.282 9.821a6 6 0 0 0-.516-4.91a6.05 6.05 0 0 0-6.51-2.9A6.065 6.065 0 0 0 4.981 4.18a6 6 0 0 0-3.998 2.9a6.05 6.05 0 0 0 .743 7.097a5.98 5.98 0 0 0 .51 4.911a6.05 6.05 0 0 0 6.515 2.9A6 6 0 0 0 13.26 24a6.06 6.06 0 0 0 5.772-4.206a6 6 0 0 0 3.997-2.9a6.06 6.06 0 0 0-.747-7.073M13.26 22.43a4.48 4.48 0 0 1-2.876-1.04l.141-.081l4.779-2.758a.8.8 0 0 0 .392-.681v-6.737l2.02 1.168a.07.07 0 0 1 .038.052v5.583a4.504 4.504 0 0 1-4.494 4.494M3.6 18.304a4.47 4.47 0 0 1-.535-3.014l.142.085l4.783 2.759a.77.77 0 0 0 .78 0l5.843-3.369v2.332a.08.08 0 0 1-.033.062L9.74 19.95a4.5 4.5 0 0 1-6.14-1.646M2.34 7.896a4.5 4.5 0 0 1 2.366-1.973V11.6a.77.77 0 0 0 .388.677l5.815 3.354l-2.02 1.168a.08.08 0 0 1-.071 0l-4.83-2.786A4.504 4.504 0 0 1 2.34 7.872zm16.597 3.855l-5.833-3.387L15.119 7.2a.08.08 0 0 1 .071 0l4.83 2.791a4.494 4.494 0 0 1-.676 8.105v-5.678a.79.79 0 0 0-.407-.667m2.01-3.023l-.141-.085l-4.774-2.782a.78.78 0 0 0-.785 0L9.409 9.23V6.897a.07.07 0 0 1 .028-.061l4.83-2.787a4.5 4.5 0 0 1 6.68 4.66zm-12.64 4.135l-2.02-1.164a.08.08 0 0 1-.038-.057V6.075a4.5 4.5 0 0 1 7.375-3.453l-.142.08L8.704 5.46a.8.8 0 0 0-.393.681zm1.097-2.365l2.602-1.5l2.607 1.5v2.999l-2.597 1.5l-2.607-1.5Z"/>
    </g>
  </g>
  <g transform="translate(256,0)">
    <rect class="bg" width="56" height="56" rx="12"/>
    <g transform="translate(12,12) scale(1.333)" class="ic">
      <path d="M22.436 0l-11.91 7.773-1.174 4.276 6.625-4.297L11.65 24h4.391l6.395-24zM14.26 10.098L3.389 17.166 1.564 24h9.008l3.688-13.902Z"/>
    </g>
  </g>
</svg>
